<svg id="Слой_1" data-name="Слой 1" xmlns="http://www.w3.org/2000/svg" viewBox="0 0 273 201.59"><defs><style>.cls-1{fill:none;stroke:#fff;stroke-miterlimit:10;stroke-width:1.2px;}.cls-2{opacity:0.85;font-size:137px;fill:#fff;font-family:ProductSansInfanity, Product Sans Infanity;}</style></defs><path class="cls-1" d="M461.69,672.07,586.38,674a56.56,56.56,0,0,1-27.89-11.12,50.23,50.23,0,0,1-14.2-17.41c-4.13-8.45-4.51-15.64-4.73-20.79-.36-8.21-.7-16.23,4.73-24.17a32.5,32.5,0,0,1,11.57-10.16,37.75,37.75,0,0,1,21-3.87c4.56.39,13,1.11,19.46,7.26.82.78,6.54,6.41,6.32,14,0,.67-.23,6.26-2.63,6.77-1.59.33-2.17-3-5.79-5.32-5-3.15-11.41-1.72-12.63-1.45a18,18,0,0,0-9.47,5.32c-4.58,5.1-3.82,12-3.68,13,1.31,9.53,10.73,14.79,13.68,16.44,10.14,5.67,20.5,4.33,23.67,3.87,3.38-.49,13.36-1.92,20.52-9.67,5.9-6.39,6.8-13.73,7.37-18.37a49.76,49.76,0,0,0-.53-13.54,48.18,48.18,0,0,0-3.15-13.06c-.58-1.37-2.88-6.57-8.95-13-3.59-3.83-13-13.9-28.41-18.86-24-7.74-45.86,2.36-50,4.35a63.43,63.43,0,0,0,3.68-23.69,62.65,62.65,0,0,0-5.78-24.18A64.59,64.59,0,0,0,527.45,498,68.8,68.8,0,0,0,518,509.12a64.86,64.86,0,0,0-7.89,16,39.53,39.53,0,0,0-3.15,18.37c.81,10.4,5.84,16.66,3.15,18.86-2.13,1.74-6-1.64-17.88-4.35-5-1.14-10.67-2.39-17.89-1.94a57.59,57.59,0,0,0-14.21,2.9,82.54,82.54,0,0,0-14.73,6.29c-9.72,5.54-24.69,18.35-28.41,37.71-1,5.22-2.73,14.26,2.11,24.18,1.39,2.85,6.43,13.18,18.94,17.41,14.45,4.88,27.21-2.31,30-3.87,3.83-2.16,10.95-6.17,13.16-14,.44-1.56,2.76-9.83-3.16-15.48-5.22-5-14.45-5.64-18.94-2.41-3.09,2.22-3.37,5.88-5.26,5.8s-3.19-3.54-3.68-5.8c-1.6-7.36,3.57-13.75,4.21-14.51,5.83-7,14.84-8.22,18.41-8.7a32.47,32.47,0,0,1,17.36,1.93c8.85,3.78,12.75,10.9,16.31,17.41,3.42,6.24,7.83,14.3,6.84,24.66-1.68,17.52-17.56,28.16-23.15,31.91A68.44,68.44,0,0,1,461.69,672.07Z" transform="translate(-407 -497.17)"/><text class="cls-2" transform="translate(0 166.92)">oYu</text></svg>